<?xml version="1.0" standalone="no"?>
<!DOCTYPE svg PUBLIC "-//W3C//DTD SVG 20010904//EN"
 "http://www.w3.org/TR/2001/REC-SVG-20010904/DTD/svg10.dtd">
<svg version="1.0" xmlns="http://www.w3.org/2000/svg"
 width="1166.000000pt" height="1177.000000pt" viewBox="0 0 1166.000000 1177.000000"
 preserveAspectRatio="xMidYMid meet">

<g transform="translate(0.000000,1177.000000) scale(0.100000,-0.100000)"
fill="#B8860B" stroke="none">
<path d="M5600 11680 c-36 -4 -101 -8 -144 -9 l-79 -1 -586 -582 c-706 -704
-522 -519 -1313 -1314 -368 -368 -1300 -1301 -2073 -2074 l-1405 -1405 0 -165
0 -164 2855 2854 c1570 1570 2855 2858 2855 2862 0 9 -14 8 -110 -2z"/>
<path d="M6355 11628 c-12 -9 -1448 -1441 -3190 -3180 l-3167 -3163 12 -90 c6
-49 13 -109 16 -132 3 -24 11 -43 17 -43 17 0 5180 5159 5194 5190 6 14 14 33
17 42 3 9 22 22 43 27 32 9 147 120 697 670 635 636 658 660 630 666 -16 4
-38 9 -49 12 -11 3 -60 9 -109 12 -76 6 -92 4 -111 -11z"/>
<path d="M4537 11554 c-5 -6 -101 -28 -172 -40 -16 -3 -39 -9 -50 -13 -47 -18
-124 -41 -139 -41 -8 0 -906 -889 -1993 -1975 -1978 -1974 -1978 -1974 -1995
-2032 -15 -50 -39 -148 -77 -313 -5 -24 -8 -46 -6 -48 4 -4 4393 4375 4474
4463 7 7 -35 6 -42 -1z"/>
<path d="M6625 10901 c-330 -331 -601 -605 -603 -611 -2 -6 52 -10 152 -10
l156 0 575 573 574 573 -38 17 c-21 9 -44 17 -52 17 -8 0 -32 7 -54 14 -22 8
-56 17 -75 21 l-35 6 -600 -600z"/>
<path d="M7600 10869 c-212 -209 -388 -384 -392 -387 -11 -10 -168 -175 -180
-189 -8 -10 22 -13 149 -13 l159 0 429 430 c236 236 431 433 433 439 2 5 -14
19 -35 29 -41 22 -163 72 -172 72 -4 0 -179 -171 -391 -381z"/>
<path d="M2879 10902 c-25 -15 -85 -49 -133 -75 -77 -43 -232 -146 -291 -193
-11 -9 -42 -31 -70 -50 -112 -76 -167 -119 -340 -264 -206 -173 -548 -512
-691 -686 -204 -247 -331 -417 -447 -599 -113 -178 -178 -289 -175 -302 2 -10
2143 2114 2197 2180 18 23 4 20 -50 -11z"/>
<path d="M8099 10353 l-559 -558 0 -147 c0 -81 4 -149 8 -152 4 -2 301 288
660 646 621 620 651 652 636 670 -10 10 -23 18 -31 18 -7 0 -13 3 -13 8 0 4
-8 12 -19 17 -10 6 -31 17 -47 26 -74 42 -26 82 -635 -528z"/>
<path d="M8758 10011 c-279 -280 -508 -514 -508 -520 0 -14 268 -15 302 -2 27
10 881 864 886 885 5 21 -137 146 -164 146 -4 0 -236 -229 -516 -509z"/>
<path d="M9447 9683 l-367 -367 0 -148 c0 -100 4 -148 11 -148 14 0 879 862
879 876 0 9 -142 154 -152 154 -2 0 -169 -165 -371 -367z"/>
<path d="M5546 9858 c-3 -7 -16 -44 -30 -83 -14 -38 -39 -110 -55 -160 -17
-49 -49 -142 -71 -205 -23 -63 -52 -146 -65 -185 -13 -38 -42 -122 -65 -185
-23 -63 -46 -128 -50 -145 -4 -16 -27 -82 -50 -145 -23 -63 -57 -160 -75 -215
-29 -84 -98 -283 -118 -335 -3 -8 -15 -42 -26 -75 -11 -33 -32 -94 -47 -135
-33 -95 -145 -415 -173 -500 -13 -36 -26 -74 -31 -85 -5 -11 -11 -29 -13 -40
-3 -11 -24 -72 -47 -135 -23 -63 -50 -142 -61 -175 -11 -33 -24 -69 -29 -80
-5 -11 -22 -60 -39 -110 -17 -49 -56 -162 -86 -250 -31 -88 -67 -191 -80 -230
-13 -38 -47 -135 -75 -215 -28 -80 -62 -176 -75 -215 -13 -38 -42 -122 -65
-185 -23 -63 -57 -160 -75 -215 -27 -81 -90 -259 -118 -335 -3 -8 -8 -24 -10
-35 -3 -11 -24 -72 -47 -135 -23 -63 -52 -146 -65 -185 -13 -38 -36 -104 -50
-145 -32 -88 -143 -407 -174 -500 -13 -36 -26 -74 -31 -85 -5 -11 -18 -49 -30
-85 -48 -141 -121 -351 -160 -460 -23 -63 -57 -160 -75 -215 -29 -86 -101
-289 -118 -335 -3 -8 -19 -55 -36 -105 -17 -49 -46 -135 -66 -190 -19 -55 -35
-108 -35 -117 0 -17 32 -18 554 -18 465 0 555 2 565 14 12 14 76 196 188 526
30 91 60 171 65 178 15 18 1533 18 1545 -1 4 -6 10 -169 13 -362 l5 -350 557
-3 c524 -2 557 -1 562 15 11 41 41 4647 41 6378 l0 860 -788 3 c-625 2 -788 0
-791 -10z m441 -2465 c-4 -230 -10 -978 -13 -1663 -5 -887 -10 -1247 -18
-1252 -15 -10 -1118 -10 -1133 0 -10 6 3 54 51 193 35 101 73 213 85 249 13
36 26 74 31 85 5 11 27 76 50 145 23 69 45 134 50 145 5 11 18 49 31 85 60
180 91 267 99 285 4 11 11 29 13 40 3 11 24 72 47 135 22 63 57 162 77 220 20
58 49 141 65 185 16 44 32 89 35 100 2 11 8 29 13 40 5 11 18 49 30 85 12 36
50 146 85 245 34 99 72 209 84 245 13 36 26 74 31 85 5 11 27 76 50 145 23 69
45 134 50 145 5 11 18 47 29 80 98 291 140 395 159 395 3 0 2 -188 -1 -417z"/>
<path d="M9680 8915 l-605 -605 -3 -157 -3 -156 26 17 c14 9 323 314 686 676
484 483 658 664 652 674 -25 44 -120 156 -133 156 -8 0 -287 -272 -620 -605z"/>
<path d="M2497 6777 c-1291 -1290 -2347 -2350 -2347 -2356 0 -5 4 -20 9 -33 5
-13 17 -50 26 -83 22 -78 36 -115 44 -115 4 0 80 73 169 163 89 89 1089 1089
2222 2221 1441 1441 2066 2072 2080 2101 11 23 20 49 20 58 0 9 5 19 10 22 6
3 10 13 10 22 0 8 6 29 14 46 8 18 16 41 19 52 3 11 21 65 41 120 20 55 35
106 34 114 -2 7 -1059 -1042 -2351 -2332z"/>
<path d="M9901 8126 c-447 -447 -817 -819 -821 -827 -13 -23 -22 -282 -11
-299 12 -18 -84 -111 987 959 739 739 783 785 771 805 -8 12 -33 54 -57 94
-23 40 -46 74 -49 77 -4 2 -373 -362 -820 -809z"/>
<path d="M11060 8270 c-7 -4 -460 -455 -1007 -1001 l-993 -994 0 -153 c0 -99
4 -152 10 -150 6 2 480 473 1054 1047 l1045 1044 -20 51 c-11 28 -29 70 -39
93 -11 24 -20 47 -20 52 0 15 -15 21 -30 11z"/>
<path d="M4246 7518 c-33 -29 -73 -68 -90 -87 -17 -19 -359 -362 -761 -762
-401 -400 -739 -736 -750 -747 -703 -702 -1519 -1519 -1585 -1587 -49 -50
-213 -214 -365 -365 -152 -151 -280 -282 -285 -291 -7 -12 -2 -32 15 -68 14
-28 25 -54 25 -58 0 -16 36 -83 47 -87 7 -3 802 783 1827 1805 1567 1563 1817
1817 1840 1865 14 30 26 63 26 74 0 10 5 22 10 25 6 3 10 13 10 22 0 8 6 29
14 46 8 18 16 41 19 52 3 11 19 59 37 108 17 48 30 92 28 98 -2 5 -30 -14 -62
-43z"/>
<path d="M10197 6406 l-1137 -1134 -1 -109 c-1 -59 -1 -119 -1 -133 -1 -52 2
-72 12 -68 9 3 531 523 1767 1760 l583 583 -19 75 c-35 135 -43 160 -55 160
-7 0 -524 -510 -1149 -1134z"/>
<path d="M10285 5490 l-1230 -1230 -5 -127 c-6 -148 -3 -183 13 -183 7 0 574
563 1261 1250 l1248 1250 -6 57 c-17 149 -29 213 -40 213 -6 0 -564 -553
-1241 -1230z"/>
<path d="M2251 4515 l-1520 -1518 28 -52 c46 -87 91 -146 104 -138 29 18 2702
2693 2730 2733 18 25 41 70 51 100 10 30 20 62 23 70 33 87 86 240 90 260 3
14 10 31 16 38 5 7 7 15 4 19 -4 3 -691 -677 -1526 -1512z"/>
<path d="M10321 4517 c-694 -694 -1266 -1269 -1271 -1277 -5 -8 -10 -81 -10
-162 0 -126 2 -147 15 -142 23 9 2516 2507 2525 2530 13 33 24 300 13 307 -5
3 -577 -562 -1272 -1256z"/>
<path d="M10248 3434 l-1208 -1207 0 -154 c0 -138 2 -153 16 -145 27 15 2314
2306 2314 2318 0 6 11 45 23 85 30 94 70 272 65 293 -2 11 -424 -404 -1210
-1190z"/>
<path d="M2171 3426 c-752 -752 -1041 -1047 -1036 -1057 23 -38 128 -160 136
-157 19 6 1791 1784 1806 1811 8 16 23 54 33 85 40 119 71 208 79 227 12 30
41 119 41 128 0 4 -3 7 -7 7 -5 0 -478 -470 -1052 -1044z"/>
<path d="M10835 3010 c-33 -27 -2224 -2214 -2221 -2218 6 -5 106 47 143 74 17
13 35 24 38 24 12 0 469 310 540 366 39 31 87 68 107 84 39 29 107 87 212 179
90 81 382 374 462 465 189 217 176 200 295 356 147 191 322 454 406 608 34 62
38 78 18 62z"/>
<path d="M2151 2396 c-294 -294 -539 -542 -543 -550 -6 -11 10 -35 63 -91 39
-41 76 -75 81 -75 6 0 184 174 396 388 341 341 389 392 400 432 8 25 19 59 26
75 7 17 21 55 30 85 10 30 21 64 26 75 5 11 11 29 13 40 3 11 15 46 27 78 12
31 20 62 18 67 -2 6 -244 -230 -537 -524z"/>
<path d="M2542 1785 c-415 -414 -425 -425 -406 -443 10 -9 39 -33 64 -52 25
-19 54 -43 64 -52 11 -10 25 -18 32 -18 12 0 976 962 982 980 2 6 -54 10 -153
10 l-158 0 -425 -425z"/>
<path d="M3344 1574 c-602 -598 -638 -636 -619 -649 11 -8 25 -18 31 -22 22
-17 51 -33 99 -57 l50 -25 38 37 c362 351 1327 1321 1327 1335 0 15 -14 17
-143 17 l-143 0 -640 -636z"/>
<path d="M6953 2157 c-6 -7 -464 -464 -1017 -1017 -553 -553 -1006 -1010
-1006 -1017 0 -7 23 -14 58 -17 31 -4 79 -11 105 -16 109 -22 14 -108 1069
949 l958 959 0 74 c0 44 -5 79 -12 86 -16 16 -139 15 -155 -1z"/>
<path d="M4311 1443 l-95 -4 -424 -425 c-357 -357 -422 -427 -412 -439 7 -8
16 -15 20 -15 5 0 43 -16 85 -36 43 -19 86 -34 96 -32 19 3 949 924 949 940 0
4 -8 8 -17 9 -10 0 -38 1 -63 3 -25 1 -88 0 -139 -1z"/>
<path d="M5335 1442 l-110 -3 -562 -562 c-310 -309 -563 -565 -563 -568 0 -10
43 -26 120 -44 41 -10 79 -22 85 -26 5 -5 15 -9 22 -9 19 0 1212 1190 1207
1204 -5 12 -27 13 -199 8z"/>
<path d="M7340 1440 l-105 -5 -680 -683 c-374 -376 -682 -688 -684 -694 -5
-14 287 -7 312 8 29 17 1379 1365 1373 1372 -8 7 -89 8 -216 2z"/>
<path d="M8367 1440 l-118 -5 -625 -625 c-344 -343 -620 -626 -614 -628 6 -2
23 1 38 6 15 6 63 18 107 27 44 9 89 21 100 25 18 7 55 18 137 38 19 5 218
197 598 577 313 313 570 573 570 576 0 11 -68 14 -193 9z"/>
</g>
</svg>
